<?xml version="1.0" encoding="UTF-8"?>
<!DOCTYPE svg PUBLIC "-//W3C//DTD SVG 1.1//EN" "http://www.w3.org/Graphics/SVG/1.1/DTD/svg11.dtd">
<svg xmlns="http://www.w3.org/2000/svg" version="1.1" width="763px" height="196px" style="shape-rendering:geometricPrecision; text-rendering:geometricPrecision; image-rendering:optimizeQuality; fill-rule:evenodd; clip-rule:evenodd" xmlns:xlink="http://www.w3.org/1999/xlink">
<g><path style="opacity:0.971" fill="#cd5b52" d="M 26.5,23.5 C 17.4993,26.1669 8.49929,28.8336 -0.5,31.5C -0.5,29.1667 -0.5,26.8333 -0.5,24.5C 4.10254,17.4654 10.4359,15.2987 18.5,18C 21.4068,19.6091 24.0734,21.4424 26.5,23.5 Z"/></g>
<g><path style="opacity:0.972" fill="#bf554a" d="M 26.5,23.5 C 29.5113,24.6693 32.178,26.336 34.5,28.5C 22.7572,31.9701 11.0906,35.6367 -0.5,39.5C -0.5,36.8333 -0.5,34.1667 -0.5,31.5C 8.49929,28.8336 17.4993,26.1669 26.5,23.5 Z"/></g>
<g><path style="opacity:0.979" fill="#b35142" d="M 34.5,28.5 C 37.7598,29.7738 40.7598,31.4405 43.5,33.5C 28.7562,37.9704 14.0895,42.637 -0.5,47.5C -0.5,44.8333 -0.5,42.1667 -0.5,39.5C 11.0906,35.6367 22.7572,31.9701 34.5,28.5 Z"/></g>
<g><path style="opacity:0.986" fill="#a44b3a" d="M 43.5,33.5 C 47.9726,35.9048 52.306,38.5715 56.5,41.5C 47.2223,41.0309 38.5556,43.3642 30.5,48.5C 20.1027,51.6817 9.76941,55.015 -0.5,58.5C -0.5,54.8333 -0.5,51.1667 -0.5,47.5C 14.0895,42.637 28.7562,37.9704 43.5,33.5 Z"/></g>
<g><path style="opacity:0.96" fill="#fefffe" d="M 161.5,53.5 C 177.837,53.3334 194.17,53.5001 210.5,54C 228.7,58.5472 235.866,70.0472 232,88.5C 228.665,97.8341 222.165,103.667 212.5,106C 204.53,107.022 196.53,107.522 188.5,107.5C 188.5,117.5 188.5,127.5 188.5,137.5C 179.5,137.5 170.5,137.5 161.5,137.5C 161.5,109.5 161.5,81.5 161.5,53.5 Z M 187.5,73.5 C 192.511,73.3341 197.511,73.5007 202.5,74C 206.315,76.2175 207.315,79.3842 205.5,83.5C 204.335,84.5836 203.002,85.4169 201.5,86C 196.882,86.994 192.215,87.494 187.5,87.5C 187.5,82.8333 187.5,78.1667 187.5,73.5 Z"/></g>
<g><path style="opacity:0.947" fill="#fefffe" d="M 350.5,53.5 C 358.833,53.5 367.167,53.5 375.5,53.5C 375.5,81.5 375.5,109.5 375.5,137.5C 367.5,137.5 359.5,137.5 351.5,137.5C 351.663,135.143 351.497,132.81 351,130.5C 349.019,133.745 346.186,135.911 342.5,137C 328.437,140.545 318.603,135.712 313,122.5C 309.667,111.167 309.667,99.8333 313,88.5C 318.881,75.8098 328.714,70.9765 342.5,74C 345.249,75.1227 347.749,76.6227 350,78.5C 350.5,70.1733 350.666,61.84 350.5,53.5 Z M 340.5,89.5 C 347.153,87.9841 350.319,90.6508 350,97.5C 350.774,104.224 350.441,110.89 349,117.5C 346.451,121.925 343.118,122.592 339,119.5C 336.554,112.715 335.887,105.715 337,98.5C 337.117,95.0365 338.284,92.0365 340.5,89.5 Z"/></g>
<g><path style="opacity:0.949" fill="#fefffe" d="M 595.5,53.5 C 603.5,53.5 611.5,53.5 619.5,53.5C 619.5,60.5 619.5,67.5 619.5,74.5C 623.5,74.5 627.5,74.5 631.5,74.5C 631.5,79.8333 631.5,85.1667 631.5,90.5C 627.5,90.5 623.5,90.5 619.5,90.5C 619.334,99.1731 619.5,107.84 620,116.5C 623.494,118.377 627.327,119.044 631.5,118.5C 631.5,124.833 631.5,131.167 631.5,137.5C 623.493,137.666 615.493,137.5 607.5,137C 600.057,134.55 595.89,129.383 595,121.5C 594.5,111.172 594.334,100.839 594.5,90.5C 591.5,90.5 588.5,90.5 585.5,90.5C 585.5,85.1667 585.5,79.8333 585.5,74.5C 588.5,74.5 591.5,74.5 594.5,74.5C 594.894,67.5036 595.227,60.5036 595.5,53.5 Z"/></g>
<g><path style="opacity:0.972" fill="#914430" d="M 30.5,48.5 C 25.0213,53.7915 21.3547,60.1248 19.5,67.5C 13.4678,68.7313 7.80116,70.7313 2.5,73.5C 1.5,72.8333 0.5,72.1667 -0.5,71.5C -0.5,67.1667 -0.5,62.8333 -0.5,58.5C 9.76941,55.015 20.1027,51.6817 30.5,48.5 Z"/></g>
<g><path style="opacity:0.649" fill="#73381f" d="M 84.5,58.5 C 83.0813,59.4511 81.4147,59.7845 79.5,59.5C 78.2843,57.5198 77.4509,55.5198 77,53.5C 79.8239,54.8181 82.3239,56.4848 84.5,58.5 Z"/></g>
<g><path style="opacity:0.94" fill="#572525" d="M 84.5,58.5 C 88.457,60.4726 92.1237,62.8059 95.5,65.5C 88.5708,70.1305 82.2374,75.4638 76.5,81.5C 73.8127,81.6641 71.146,81.4974 68.5,81C 64.5138,79.0569 63.8471,76.3902 66.5,73C 72.1958,72.8299 77.8624,72.3299 83.5,71.5C 82.759,67.277 81.4257,63.277 79.5,59.5C 81.4147,59.7845 83.0813,59.4511 84.5,58.5 Z"/></g>
<g><path style="opacity:0.975" fill="#451d1d" d="M 95.5,65.5 C 100.5,67.6643 105.167,70.331 109.5,73.5C 98.9545,80.3691 88.9545,88.0358 79.5,96.5C 75.1539,96.6657 70.8206,96.499 66.5,96C 63.8471,92.6098 64.5138,89.9431 68.5,88C 73.4889,87.5007 78.4889,87.3341 83.5,87.5C 83.5,85.5 83.5,83.5 83.5,81.5C 81.1667,81.5 78.8333,81.5 76.5,81.5C 82.2374,75.4638 88.5708,70.1305 95.5,65.5 Z"/></g>
<g><path style="opacity:1" fill="#763a20" d="M 19.5,67.5 C 18.962,69.1172 18.6287,70.7839 18.5,72.5C 24.1764,72.3339 29.8431,72.5006 35.5,73C 36.2524,73.6708 36.5858,74.5041 36.5,75.5C 33.0393,76.5512 30.3727,78.5512 28.5,81.5C 25.1667,81.5 21.8333,81.5 18.5,81.5C 18.5,82.8333 18.5,84.1667 18.5,85.5C 12.8387,81.9957 7.50533,77.9957 2.5,73.5C 7.80116,70.7313 13.4678,68.7313 19.5,67.5 Z"/></g>
<g><path style="opacity:0.948" fill="#fefffe" d="M 261.5,73.5 C 276.917,70.554 289.751,74.8873 300,86.5C 308.72,103.006 306.553,117.84 293.5,131C 283.363,137.202 272.363,139.202 260.5,137C 241.556,130.632 233.723,117.466 237,97.5C 240.449,84.5499 248.615,76.5499 261.5,73.5 Z M 267.5,89.5 C 270.685,89.0196 273.519,89.6863 276,91.5C 279.6,101.463 279.1,111.13 274.5,120.5C 269.019,122.899 265.519,121.232 264,115.5C 263.333,108.833 263.333,102.167 264,95.5C 264.564,93.1133 265.73,91.1133 267.5,89.5 Z"/></g>
<g><path style="opacity:0.94" fill="#fefffe" d="M 406.5,73.5 C 420.596,70.6957 432.096,74.6957 441,85.5C 443.406,89.8855 444.906,94.5522 445.5,99.5C 437.905,99.6465 430.405,100.313 423,101.5C 422.848,94.3386 419.348,91.1719 412.5,92C 410.012,96.108 409.012,100.608 409.5,105.5C 409.284,109.691 409.95,113.691 411.5,117.5C 418.395,121.386 422.395,119.386 423.5,111.5C 430.845,111.629 438.178,111.962 445.5,112.5C 444.183,124.988 437.516,133.155 425.5,137C 395.325,140.823 381.492,127.656 384,97.5C 387.254,85.4157 394.754,77.4157 406.5,73.5 Z"/></g>
<g><path style="opacity:0.938" fill="#fefffe" d="M 472.5,73.5 C 480.174,73.3336 487.841,73.5003 495.5,74C 507.805,75.9666 513.971,83.1333 514,95.5C 514.257,109.52 514.757,123.52 515.5,137.5C 507.5,137.5 499.5,137.5 491.5,137.5C 491.808,135.076 491.474,132.743 490.5,130.5C 487.461,133.688 483.794,135.855 479.5,137C 472.751,137.877 466.084,137.544 459.5,136C 449.158,129.082 446.658,119.915 452,108.5C 457.511,102.543 464.344,99.0434 472.5,98C 478.112,96.8686 483.779,96.3686 489.5,96.5C 490.255,91.4221 488.088,89.0888 483,89.5C 477.684,88.9798 474.684,91.3131 474,96.5C 466.205,95.5844 458.372,94.5844 450.5,93.5C 453.752,82.2444 461.085,75.5777 472.5,73.5 Z M 484.5,109.5 C 486.167,109.5 487.833,109.5 489.5,109.5C 490.023,120.176 485.523,123.51 476,119.5C 475.333,117.833 475.333,116.167 476,114.5C 478.682,112.415 481.516,110.748 484.5,109.5 Z"/></g>
<g><path style="opacity:0.934" fill="#fefffe" d="M 541.5,73.5 C 549.903,73.1301 558.236,73.6301 566.5,75C 573.544,77.2103 578.544,81.7103 581.5,88.5C 575.11,90.6111 568.61,92.2778 562,93.5C 560.992,91.741 559.492,90.5743 557.5,90C 553.833,89.3333 550.167,89.3333 546.5,90C 543.978,91.6859 544.311,93.0192 547.5,94C 556.332,94.3536 564.999,95.6869 573.5,98C 585.377,106.72 587.21,117.22 579,129.5C 574.514,133.333 569.348,135.833 563.5,137C 555.833,137.667 548.167,137.667 540.5,137C 530.113,134.946 523.113,128.946 519.5,119C 526.423,117.296 533.423,116.629 540.5,117C 543.517,120.879 547.517,122.379 552.5,121.5C 554.833,121.333 557.167,121.167 559.5,121C 562.167,119.667 562.167,118.333 559.5,117C 550.36,116.059 541.36,114.392 532.5,112C 522.235,104.435 520.068,94.9354 526,83.5C 530.308,78.6647 535.475,75.3314 541.5,73.5 Z"/></g>
<g><path style="opacity:0.939" fill="#fefffe" d="M 659.5,73.5 C 666.175,73.3337 672.842,73.5004 679.5,74C 697.147,80.0897 705.147,92.5897 703.5,111.5C 689.5,111.5 675.5,111.5 661.5,111.5C 661.764,120.266 666.097,123.432 674.5,121C 676.86,119.635 678.527,117.635 679.5,115C 687.588,114.172 695.588,114.672 703.5,116.5C 700.032,125.802 693.698,132.302 684.5,136C 676.23,137.537 667.897,137.87 659.5,137C 640.084,130.883 632.251,117.717 636,97.5C 639.349,84.9853 647.182,76.9853 659.5,73.5 Z M 665.5,89.5 C 673.369,87.7393 677.369,90.7393 677.5,98.5C 672.167,98.5 666.833,98.5 661.5,98.5C 661.482,94.8707 662.816,91.8707 665.5,89.5 Z"/></g>
<g><path style="opacity:0.948" fill="#fefffe" d="M 742.5,73.5 C 746.167,73.5 749.833,73.5 753.5,73.5C 753.5,80.8333 753.5,88.1667 753.5,95.5C 750.15,95.335 746.817,95.5017 743.5,96C 741,97.1667 739.167,99 738,101.5C 736.562,113.424 736.062,125.424 736.5,137.5C 728.5,137.5 720.5,137.5 712.5,137.5C 712.5,116.5 712.5,95.5 712.5,74.5C 719.5,74.5 726.5,74.5 733.5,74.5C 732.622,82.6331 733.788,83.6331 737,77.5C 739.015,76.3034 740.849,74.9701 742.5,73.5 Z"/></g>
<g><path style="opacity:0.789" fill="#7b3635" d="M 36.5,75.5 C 36.2267,80.3316 33.5601,82.3316 28.5,81.5C 30.3727,78.5512 33.0393,76.5512 36.5,75.5 Z"/></g>
<g><path style="opacity:0.973" fill="#371717" d="M 109.5,73.5 C 111.833,74.8333 114.167,76.1667 116.5,77.5C 102.5,89.1667 88.5,100.833 74.5,112.5C 71.8127,112.664 69.146,112.497 66.5,112C 63.6261,108.949 63.9594,106.282 67.5,104C 72.8229,103.501 78.1563,103.334 83.5,103.5C 83.5,101.167 83.5,98.8333 83.5,96.5C 82.1667,96.5 80.8333,96.5 79.5,96.5C 88.9545,88.0358 98.9545,80.3691 109.5,73.5 Z"/></g>
<g><path style="opacity:1" fill="#f3c8eb" d="M -0.5,71.5 C 0.5,72.1667 1.5,72.8333 2.5,73.5C 7.50533,77.9957 12.8387,81.9957 18.5,85.5C 18.3284,86.4916 18.6618,87.1583 19.5,87.5C 16.1383,91.1925 12.8049,94.8592 9.5,98.5C 6.5,94.8333 3.16667,91.5 -0.5,88.5C -0.5,82.8333 -0.5,77.1667 -0.5,71.5 Z"/></g>
<g><path style="opacity:0.982" fill="#2a1212" d="M 116.5,77.5 C 119.047,78.9336 121.381,80.6002 123.5,82.5C 110.391,94.2176 96.724,105.218 82.5,115.5C 82.4142,114.504 82.7476,113.671 83.5,113C 80.5184,112.502 77.5184,112.335 74.5,112.5C 88.5,100.833 102.5,89.1667 116.5,77.5 Z"/></g>
<g><path style="opacity:0.979" fill="#220e0e" d="M 123.5,82.5 C 125.153,82.6596 126.486,83.3263 127.5,84.5C 112.483,97.5142 97.1494,110.181 81.5,122.5C 81.9926,120.194 82.3259,117.861 82.5,115.5C 96.724,105.218 110.391,94.2176 123.5,82.5 Z"/></g>
<g><path style="opacity:0.945" fill="#1b0b0b" d="M 127.5,84.5 C 129.754,85.1237 131.421,86.457 132.5,88.5C 107.015,109.074 81.3487,129.407 55.5,149.5C 55.5,147.167 55.5,144.833 55.5,142.5C 67.3555,139.978 76.0221,133.311 81.5,122.5C 97.1494,110.181 112.483,97.5142 127.5,84.5 Z"/></g>
<g><path style="opacity:0.954" fill="#743333" d="M 19.5,87.5 C 24.1785,87.3342 28.8452,87.5008 33.5,88C 36.608,89.9396 37.2747,92.6063 35.5,96C 29.8431,96.4994 24.1764,96.6661 18.5,96.5C 18.5,97.8333 18.5,99.1667 18.5,100.5C 12.185,105.142 5.85169,109.809 -0.5,114.5C -0.5,113.833 -0.5,113.167 -0.5,112.5C 2.82108,107.871 6.15442,103.204 9.5,98.5C 12.8049,94.8592 16.1383,91.1925 19.5,87.5 Z"/></g>
<g><path style="opacity:1" fill="#f6d9f1" d="M -0.5,88.5 C 3.16667,91.5 6.5,94.8333 9.5,98.5C 6.15442,103.204 2.82108,107.871 -0.5,112.5C -0.5,104.5 -0.5,96.5 -0.5,88.5 Z"/></g>
<g><path style="opacity:0.955" fill="#100606" d="M 132.5,88.5 C 135.552,90.4399 136.885,93.2733 136.5,97C 136.784,102.153 134.784,106.153 130.5,109C 105.999,124.085 81.3325,138.918 56.5,153.5C 55.5713,152.311 55.238,150.978 55.5,149.5C 81.3487,129.407 107.015,109.074 132.5,88.5 Z"/></g>
<g><path style="opacity:0.974" fill="#682d2d" d="M 18.5,100.5 C 18.5,101.5 18.5,102.5 18.5,103.5C 21.5,103.5 24.5,103.5 27.5,103.5C 18.7731,111.892 9.43979,119.559 -0.5,126.5C -0.5,122.5 -0.5,118.5 -0.5,114.5C 5.85169,109.809 12.185,105.142 18.5,100.5 Z"/></g>
<g><path style="opacity:0.958" fill="#5d2828" d="M 27.5,103.5 C 34.4933,101.996 37.3267,104.663 36,111.5C 30.2588,112.475 24.4254,112.808 18.5,112.5C 19.01,115.539 19.6766,118.539 20.5,121.5C 13.5,126.833 6.5,132.167 -0.5,137.5C -0.5,133.833 -0.5,130.167 -0.5,126.5C 9.43979,119.559 18.7731,111.892 27.5,103.5 Z"/></g>
<g><path style="opacity:0.979" fill="#4f2222" d="M 20.5,121.5 C 21.8333,124.167 23.1667,126.833 24.5,129.5C 16.1667,136.167 7.83333,142.833 -0.5,149.5C -0.5,145.5 -0.5,141.5 -0.5,137.5C 6.5,132.167 13.5,126.833 20.5,121.5 Z"/></g>
<g><path style="opacity:0.993" fill="#421c1c" d="M 24.5,129.5 C 26.1394,131.806 28.1394,133.806 30.5,135.5C 20.3917,144.394 10.0583,153.061 -0.5,161.5C -0.5,157.5 -0.5,153.5 -0.5,149.5C 7.83333,142.833 16.1667,136.167 24.5,129.5 Z"/></g>
<g><path style="opacity:0.979" fill="#361717" d="M 30.5,135.5 C 33.1667,137.167 35.8333,138.833 38.5,140.5C 26.1667,151.167 13.8333,161.833 1.5,172.5C 0.833333,171.833 0.166667,171.167 -0.5,170.5C -0.5,167.5 -0.5,164.5 -0.5,161.5C 10.0583,153.061 20.3917,144.394 30.5,135.5 Z"/></g>
<g><path style="opacity:0.976" fill="#2a1212" d="M 38.5,140.5 C 42.0148,141.919 45.6814,142.586 49.5,142.5C 36.1275,154.541 22.4608,166.208 8.5,177.5C 5.32565,176.99 2.99232,175.323 1.5,172.5C 13.8333,161.833 26.1667,151.167 38.5,140.5 Z"/></g>
<g><path style="opacity:0.938" fill="#200e0e" d="M 49.5,142.5 C 50.9778,142.238 52.3112,142.571 53.5,143.5C 51.517,145.984 49.3504,148.317 47,150.5C 46.5017,153.817 46.335,157.15 46.5,160.5C 42.3628,160.146 38.3628,160.646 34.5,162C 32.3195,164.864 30.3195,167.864 28.5,171C 25.1667,173 21.8333,175 18.5,177C 15.1763,178.616 11.843,178.783 8.5,177.5C 22.4608,166.208 36.1275,154.541 49.5,142.5 Z"/></g>
</svg>
